<svg width="16" height="16" viewBox="0 0 16 16" fill="none" xmlns="http://www.w3.org/2000/svg">
<circle cx="8" cy="8" r="8" fill="white"/>
<path d="M9.06666 13.4518C8.65185 13.5704 8.17777 13.6296 7.7037 13.6296C4.44444 13.6296 1.77777 10.963 1.77777 7.7037C1.77777 4.44444 4.44444 1.77777 7.7037 1.77777C8.47407 1.77777 9.24444 1.95555 9.95555 2.19259L9.0074 3.14073C8.59259 3.02222 8.17777 2.96296 7.7037 2.96296C5.09629 2.96296 2.96296 5.09629 2.96296 7.7037C2.96296 10.3111 5.09629 12.4444 7.7037 12.4444C7.94073 12.4444 8.23703 12.4444 8.47407 12.3852C8.59259 12.8 8.82962 13.1555 9.06666 13.4518ZM5.27407 6.57777L4.44444 7.4074L7.1111 10.0741L13.037 4.14814L12.2074 3.31851L7.1111 8.41481L5.27407 6.57777ZM11.2593 8.88888V10.6667H9.48147V11.8518H11.2593V13.6296H12.4444V11.8518H14.2222V10.6667H12.4444V8.88888H11.2593Z" fill="black"/>
</svg>
