<svg width="32" height="32" viewBox="0 0 32 32" fill="none" xmlns="http://www.w3.org/2000/svg">
<circle cx="16" cy="16" r="16" fill="white"/>
<path d="M18.1333 26.9038C17.3037 27.1408 16.3555 27.2593 15.4074 27.2593C8.88887 27.2593 3.55554 21.926 3.55554 15.4075C3.55554 8.88894 8.88887 3.5556 15.4074 3.5556C16.9481 3.5556 18.4889 3.91116 19.9111 4.38523L18.0148 6.28153C17.1852 6.04449 16.3555 5.92597 15.4074 5.92597C10.1926 5.92597 5.92591 10.1926 5.92591 15.4075C5.92591 20.6223 10.1926 24.8889 15.4074 24.8889C15.8815 24.8889 16.4741 24.8889 16.9481 24.7704C17.1852 25.6 17.6592 26.3112 18.1333 26.9038ZM10.5481 13.1556L8.88887 14.8149L14.2222 20.1482L26.0741 8.29634L24.4148 6.63708L14.2222 16.8297L10.5481 13.1556ZM22.5185 17.7778V21.3334H18.9629V23.7038H22.5185V27.2593H24.8889V23.7038H28.4444V21.3334H24.8889V17.7778H22.5185Z" fill="black"/>
</svg>
