<svg width="24" height="24" viewBox="0 0 24 24" fill="none" xmlns="http://www.w3.org/2000/svg">
<circle cx="12" cy="12" r="12" fill="white"/>
<path d="M13.6 20.1778C12.9778 20.3556 12.2667 20.4445 11.5556 20.4445C6.66667 20.4445 2.66667 16.4445 2.66667 11.5556C2.66667 6.66669 6.66667 2.66669 11.5556 2.66669C12.7111 2.66669 13.8667 2.93335 14.9333 3.28891L13.5111 4.71113C12.8889 4.53335 12.2667 4.44446 11.5556 4.44446C7.64445 4.44446 4.44445 7.64446 4.44445 11.5556C4.44445 15.4667 7.64445 18.6667 11.5556 18.6667C11.9111 18.6667 12.3556 18.6667 12.7111 18.5778C12.8889 19.2 13.2444 19.7334 13.6 20.1778ZM7.91112 9.86669L6.66667 11.1111L10.6667 15.1111L19.5556 6.22224L18.3111 4.9778L10.6667 12.6222L7.91112 9.86669ZM16.8889 13.3334V16H14.2222V17.7778H16.8889V20.4445H18.6667V17.7778H21.3333V16H18.6667V13.3334H16.8889Z" fill="black"/>
</svg>
