<svg width="64" height="64" viewBox="0 0 64 64" fill="none" xmlns="http://www.w3.org/2000/svg">
<circle cx="32" cy="32" r="32" fill="white"/>
<path d="M36.2666 53.8075C34.6074 54.2816 32.7111 54.5186 30.8148 54.5186C17.7777 54.5186 7.11108 43.8519 7.11108 30.8149C7.11108 17.7779 17.7777 7.11121 30.8148 7.11121C33.8963 7.11121 36.9777 7.82232 39.8222 8.77047L36.0296 12.5631C34.3703 12.089 32.7111 11.8519 30.8148 11.8519C20.3852 11.8519 11.8518 20.3853 11.8518 30.8149C11.8518 41.2445 20.3852 49.7779 30.8148 49.7779C31.7629 49.7779 32.9481 49.7779 33.8963 49.5408C34.3703 51.2001 35.3185 52.6223 36.2666 53.8075ZM21.0963 26.3112L17.7777 29.6297L28.4444 40.2964L52.1481 16.5927L48.8296 13.2742L28.4444 33.6594L21.0963 26.3112ZM45.037 35.5557V42.6668H37.9259V47.4075H45.037V54.5186H49.7777V47.4075H56.8889V42.6668H49.7777V35.5557H45.037Z" fill="black"/>
</svg>
