<svg width="512" height="512" viewBox="0 0 512 512" fill="none" xmlns="http://www.w3.org/2000/svg">
<circle cx="256" cy="256" r="256" fill="white"/>
<path d="M290.133 430.46C276.859 434.253 261.689 436.149 246.518 436.149C142.222 436.149 56.8887 350.816 56.8887 246.519C56.8887 142.223 142.222 56.8896 246.518 56.8896C271.17 56.8896 295.822 62.5785 318.578 70.1637L288.237 100.504C274.963 96.7119 261.689 94.8156 246.518 94.8156C163.081 94.8156 94.8146 163.082 94.8146 246.519C94.8146 329.956 163.081 398.223 246.518 398.223C254.103 398.223 263.585 398.223 271.17 396.327C274.963 409.601 282.548 420.979 290.133 430.46ZM168.77 210.49L142.222 237.038L227.555 322.371L417.185 132.742L390.637 106.193L227.555 269.275L168.77 210.49ZM360.296 284.445V341.334H303.407V379.26H360.296V436.149H398.222V379.26H455.111V341.334H398.222V284.445H360.296Z" fill="black"/>
</svg>
