<svg width="192" height="192" viewBox="0 0 192 192" fill="none" xmlns="http://www.w3.org/2000/svg">
<circle cx="96" cy="96" r="96" fill="white"/>
<path d="M108.8 161.423C103.822 162.845 98.1332 163.556 92.4444 163.556C53.3333 163.556 21.3333 131.556 21.3333 92.4447C21.3333 53.3336 53.3333 21.3336 92.4444 21.3336C101.689 21.3336 110.933 23.467 119.467 26.3114L108.089 37.6892C103.111 36.267 98.1332 35.5558 92.4444 35.5558C61.1555 35.5558 35.5555 61.1558 35.5555 92.4447C35.5555 123.734 61.1555 149.334 92.4444 149.334C95.2888 149.334 98.8444 149.334 101.689 148.622C103.111 153.6 105.955 157.867 108.8 161.423ZM63.2888 78.9336L53.3333 88.8892L85.3332 120.889L156.444 49.7781L146.489 39.8225L85.3332 100.978L63.2888 78.9336ZM135.111 106.667V128H113.778V142.222H135.111V163.556H149.333V142.222H170.667V128H149.333V106.667H135.111Z" fill="black"/>
</svg>
